# File created by Blade
# Date/Time:  Tue Apr 07 20:49:23 2015
# Frame Rate: 120.000 fps
#------------------------------------------------------
:FULLY-SPECIFIED
:DEGREES
445
root 2.336125 33.902611 -7.101394 -46.326647 63.123659 -106.100018
Spine -32.275750 -14.635093 25.143670
Head -8.517755 16.205760 26.209647
LeftShoulder -22.699538 43.196893 25.486576
LeftArm 70.533460 -64.379233 -82.964536
LeftForeArm 4.394807 -0.000000 13.648991
LeftHand 7.811094 -0.000000 11.148093
LeftHandThumb1 -26.253704 0.000000 33.147579
RightShoulder -24.400748 -14.339630 -17.138807
RightArm -21.047416 40.281405 40.688916
RightForeArm 71.484612 -0.000000 -0.793470
RightHand 6.670622 -0.000000 21.313060
RightHandThumb1 -24.326973 -0.000000 -32.862282
LeftUpLeg -58.443699 10.206032 27.152034
LeftLeg 6.490462 -0.000000 -0.000000
LeftFoot -6.702598 15.666689 -10.307690
LeftToeBase -9.791280 -0.000000 0.000000
RightUpLeg 21.296780 18.185268 -22.318897
RightLeg 87.825123 -0.000000 -0.000000
RightFoot 51.555085 4.090978 -1.681542
RightToeBase 6.589437 -0.000000 -0.000000
446
root 2.323649 33.911621 -7.084689 -46.139258 62.941183 -106.169575
Spine -32.365572 -14.557962 25.190480
Head -8.810242 16.227087 26.381213
LeftShoulder -22.459243 42.948592 25.923828
LeftArm 70.518534 -64.636334 -82.248110
LeftForeArm 4.496114 -0.000000 13.640640
LeftHand 7.786272 -0.000000 11.131301
LeftHandThumb1 -26.253704 0.000000 33.147579
RightShoulder -24.433880 -14.315791 -17.165391
RightArm -20.913660 40.138739 40.538679
RightForeArm 71.542063 -0.000000 -1.020238
RightHand 6.544354 -0.000000 21.317678
RightHandThumb1 -24.326973 -0.000000 -32.862282
LeftUpLeg -58.641733 10.503940 27.215200
LeftLeg 6.440310 -0.000000 -0.000000
LeftFoot -6.400205 15.613237 -10.023575
LeftToeBase -10.217090 -0.000000 0.000000
RightUpLeg 21.389638 18.242008 -22.355180
RightLeg 87.520452 -0.000000 -0.000000
RightFoot 51.625225 4.350196 -1.481033
RightToeBase 6.728673 -0.000000 -0.000000
447
root 2.312868 33.921974 -7.063807 -46.128888 62.707979 -106.412918
Spine -32.434856 -14.510948 25.332135
Head -9.101840 16.277452 26.563728
LeftShoulder -22.300216 42.766017 26.300729
LeftArm 70.677033 -64.859271 -81.675756
LeftForeArm 4.552054 -0.000000 13.634267
LeftHand 7.880705 -0.000000 11.240251
LeftHandThumb1 -26.253704 0.000000 33.147579
RightShoulder -24.450383 -14.315182 -17.158082
RightArm -20.790071 40.052946 40.369916
RightForeArm 71.684287 -0.000000 -1.210599
RightHand 6.402945 -0.000000 21.301499
RightHandThumb1 -24.326973 -0.000000 -32.862282
LeftUpLeg -58.853722 10.818085 27.337211
LeftLeg 6.412983 -0.000000 -0.000000
LeftFoot -6.059367 15.464537 -9.740018
LeftToeBase -10.654711 -0.000000 0.000000
RightUpLeg 21.500315 18.252350 -22.284382
RightLeg 87.244266 -0.000000 -0.000000
RightFoot 51.755651 4.509081 -1.293675
RightToeBase 6.438548 -0.000000 -0.000000
448
root 2.301212 33.931259 -7.042885 -46.114069 62.530990 -106.647880
Spine -32.506437 -14.500829 25.418748
Head -9.417421 16.311576 26.758253
LeftShoulder -22.173267 42.619667 26.642607
LeftArm 71.004197 -65.117140 -81.259112
LeftForeArm 4.565774 -0.000000 13.703889
LeftHand 7.661058 -0.000000 11.130605
LeftHandThumb1 -26.253704 0.000000 33.147579
RightShoulder -24.487018 -14.251619 -17.182328
RightArm -20.718744 39.916352 40.202493
RightForeArm 71.816830 -0.000000 -1.366209
RightHand 6.266931 0.000000 21.280138
RightHandThumb1 -24.326973 -0.000000 -32.862282
LeftUpLeg -59.081245 11.103051 27.403005
LeftLeg 6.369000 -0.000000 -0.000000
LeftFoot -5.656164 15.311894 -9.406443
LeftToeBase -11.137191 -0.000000 0.000000
RightUpLeg 21.639824 18.238154 -22.254451
RightLeg 86.974847 -0.000000 -0.000000
RightFoot 51.858441 4.546582 -1.033710
RightToeBase 6.535882 -0.000000 -0.000000
449
root 2.289598 33.938238 -7.026359 -46.080919 62.408014 -106.847864
Spine -32.581511 -14.535548 25.472119
Head -9.690561 16.356775 26.943979
LeftShoulder -22.026052 42.455583 27.007401
LeftArm 71.327451 -65.410286 -80.905592
LeftForeArm 4.825809 -0.000000 13.746867
LeftHand 7.854778 -0.000000 11.152967
LeftHandThumb1 -26.253704 0.000000 33.147579
RightShoulder -24.514745 -14.240102 -17.203100
RightArm -20.674890 40.011521 40.000956
RightForeArm 71.748978 -0.000000 -1.468138
RightHand 6.222334 -0.000000 21.309086
RightHandThumb1 -24.326973 -0.000000 -32.862282
LeftUpLeg -59.299918 11.327634 27.428306
LeftLeg 6.299773 -0.000000 -0.000000
LeftFoot -5.286303 15.245328 -9.073070
LeftToeBase -11.646335 -0.000000 0.000000
RightUpLeg 21.802483 18.193827 -22.295622
RightLeg 86.711301 -0.000000 -0.000000
RightFoot 51.978903 4.707805 -1.014362
RightToeBase 6.572135 -0.000000 -0.000000
450
root 2.275862 33.944206 -7.009070 -46.068576 62.277349 -107.086502
Spine -32.667181 -14.562429 25.551054
Head -9.945029 16.366058 27.112462
LeftShoulder -21.928569 42.345473 27.309744
LeftArm 71.855764 -65.685929 -80.689311
LeftForeArm 4.768554 0.000000 13.772703
LeftHand 7.886725 0.000000 11.259559
LeftHandThumb1 -26.253704 0.000000 33.147579
RightShoulder -24.529949 -14.174862 -17.285776
RightArm -20.699715 40.004787 39.813235
RightForeArm 71.705932 -0.000000 -1.523098
RightHand 6.178346 0.000000 21.274151
RightHandThumb1 -24.326973 -0.000000 -32.862282
LeftUpLeg -59.541218 11.550760 27.456907
LeftLeg 6.233355 -0.000000 -0.000000
LeftFoot -4.962046 15.182484 -8.733020
LeftToeBase -12.042070 -0.000000 0.000000
RightUpLeg 21.958132 18.144161 -22.325280
RightLeg 86.453049 -0.000000 -0.000000
RightFoot 52.107053 4.730535 -0.918564
RightToeBase 6.816943 -0.000000 -0.000000
